<?xml version="1.0" encoding="UTF-8"?>
<!-- Generator: Adobe Illustrator 25.2.3, SVG Export Plug-In . SVG Version: 6.00 Build 0)  -->
<svg xmlns="http://www.w3.org/2000/svg" xmlns:xlink="http://www.w3.org/1999/xlink" version="1.1" id="Capa_1" x="0px" y="0px" viewBox="0 0 512 512" style="enable-background:new 0 0 512 512;" xml:space="preserve" width="512" height="512">
<g>
	<g>
		<path style="fill:#52EDDF;" d="M265.189,42.637c0,0,27.47,52.692,41.206,48.16C320.132,86.263,282.967,47.486,265.189,42.637z"/>
	</g>
	<g>
		<path style="fill:#52EDDF;" d="M265.189,35.387c0,0,57.467,35.859,62.313,29.138c4.846-6.721-38.073-25.506-38.073-25.506    s73.825,16.927,78.063,3.617c4.24-13.31-91.492-9.961-91.492-9.961s60.591-24.557,47.866-31.827    C311.144-6.422,265.189,35.387,265.189,35.387z"/>
	</g>
	<g>
		<g>
			<path style="fill:#F50125;" d="M216.907,191.345l-43.055-91.889c0,0,35.988-29.557,34.062-28.915     c-1.93,0.64,23.132,115.664,23.132,115.664L216.907,191.345z"/>
			<polygon style="fill:#F50125;" points="258.674,28.772 263.551,51.261 137.225,137.51 107.022,110.38    "/>
		</g>
		<g>
			<path style="fill:#52EDDF;" d="M380.341,460.537L194.42,512l-72.29-257.265c0,0,143.615-168.771,235.184-101.303     C448.883,220.906,380.341,460.537,380.341,460.537z"/>
			<path style="fill:#FFFFFF;" d="M343.32,339.852c0,24.135-8.379,43.697-18.712,43.697c-10.333,0-18.712-19.562-18.712-43.697     c0-24.132,8.379-43.695,18.712-43.695C334.941,296.156,343.32,315.72,343.32,339.852z"/>
			<g>
				<path style="fill:#FFFFFF;" d="M231.046,388.691c0,0,35.554-21.85,66.117,4.497c0,0,11.335-110.525-17.723-114.381      C250.383,274.95,234.164,352.704,231.046,388.691z"/>
				<path style="fill:#000D33;" d="M267.925,342.921c0,10.38-3.229,18.796-7.212,18.796c-3.986,0-7.213-8.416-7.213-18.796      c0-10.382,3.226-18.798,7.213-18.798C264.696,324.124,267.925,332.54,267.925,342.921z"/>
			</g>
			<path style="fill:#000D33;" d="M318.14,341.313c0,7.689-2.395,13.923-5.342,13.923c-2.953,0-5.345-6.234-5.345-13.923     c0-7.685,2.392-13.919,5.345-13.919C315.745,327.394,318.14,333.627,318.14,341.313z"/>
			<g>
				<polygon style="fill:#F50125;" points="200.692,200.125 234.025,276.071 346.239,241.997 314.755,147.988     "/>
				<polygon style="fill:#52EDDF;" points="207.442,248.788 346.239,198.11 338.049,174.012 198.285,230.238     "/>
				<polygon style="fill:#52EDDF;" points="244.07,169.193 285.514,267.19 310.437,258.83 268.173,157.144     "/>
				<path style="fill:#F50125;" d="M230.662,287.01l-0.338-0.82l-36.016-87.935l122.02-54.783l37.912,104.411l-0.959,0.302      L230.662,287.01z M196.796,199.25l34.977,85.387l119.967-37.986l-36.516-100.57L196.796,199.25z"/>
			</g>
			<path style="opacity:0.5;fill:#FFFFFF;" d="M379.377,187.309c10.857,18.417,13.606,36.924,6.13,41.328     c-7.473,4.408-22.335-6.953-33.193-25.369c-10.864-18.419-13.612-36.922-6.136-41.329     C353.65,157.533,368.51,168.89,379.377,187.309z"/>
			<path style="opacity:0.5;fill:#FFFFFF;" d="M357.072,460.284c0,0,40.483-102.17,23.133-220.728     C380.205,239.556,437.719,310.243,357.072,460.284z"/>
			<g>
				<path style="fill:#000D33;" d="M230.259,466.833l8.853-42.827c11.841,1.281,14.915-12.938,14.915-12.938      c-0.177,0.82-1.139,1.84-1.604,2.505c-2.822,4.026-7.438,9.334-12.974,8.65c-2.886-0.357-5.26-2.535-6.88-4.817      c-3.202-4.51-4.601-10.334-5.597-15.696c-0.062-0.335-0.446-3.62-0.572-3.64c1.582,0.261,2.249,0.816,2.249,0.816l0.738-1.63      c-7.393-2.839-12.263,2.289-12.263,2.289c3.937-1.464,6.679-1.718,8.5-1.57c-0.278-0.023-1.247,1.272-1.434,1.477      c-2.704,2.962-5.015,6.413-6.87,9.995c-4.185,8.081-6.13,17.168-6.108,26.244c0.021,8.785,1.184,18.979,6.312,26.453      c2.723,3.932,7.012,6.569,11.895,6.062c4.796-0.498,9.109-3.355,12.641-6.464c1.739-1.531,3.353-3.201,4.869-4.951      C246.929,456.791,238.386,464.933,230.259,466.833z"/>
				<path style="fill:#FFFFFF;" d="M225.652,401.58c0,0-0.177,12.82,7.498,18.501c0,0-3.94,6.456-7.433,4.768      c-3.493-1.686,1.12-9.483,1.12-9.483s-6.328,6.964-9.48,5.036C214.202,418.476,225.652,401.58,225.652,401.58z"/>
				<path style="fill:#FF6688;" d="M212.881,442.406c0,0,1.65,23.01,14.174,24.391C227.054,466.797,223.905,436.211,212.881,442.406      z"/>
			</g>
		</g>
	</g>
</g>















</svg>
